<svg version="1.1" id="Layer_1" xmlns="http://www.w3.org/2000/svg" xmlns:xlink="http://www.w3.org/1999/xlink" x="0px" y="0px"
	 width="100%" viewBox="0 0 576 512" enable-background="new 0 0 576 512" xml:space="preserve">
<path fill="#000000" opacity="1.000000" stroke="none" 
	d="
M538.695190,305.154419 
	C537.913940,308.188354 535.870667,307.515259 534.117249,307.348511 
	C526.666382,306.639923 519.189026,306.101562 511.785797,305.048065 
	C508.199097,304.537689 506.977905,306.018585 506.316101,309.047089 
	C504.106506,319.158447 500.716400,328.922577 496.768494,338.445160 
	C495.197449,342.234650 496.386749,343.864807 499.375641,345.558685 
	C505.605347,349.089203 511.687073,352.885834 517.972351,356.311218 
	C520.955933,357.937225 521.662964,359.474518 519.832092,362.569244 
	C512.709045,374.609253 505.715515,386.727966 498.850769,398.917084 
	C497.208984,401.832245 495.685638,402.100647 492.916321,400.448669 
	C486.339264,396.525391 479.569489,392.926666 472.949127,389.073914 
	C470.545685,387.675262 469.012787,387.743591 467.118713,390.160217 
	C460.540588,398.553284 453.540497,406.614929 445.752411,413.915131 
	C443.039612,416.457947 443.273346,418.331299 445.381042,421.071411 
	C449.745422,426.745300 453.666046,432.759918 458.013092,438.447998 
	C460.226501,441.344269 460.098206,443.160553 457.020691,445.342926 
	C445.610474,453.434326 434.294128,461.661896 423.073700,470.014496 
	C420.466461,471.955292 419.221222,471.371979 417.526642,468.951508 
	C413.134766,462.678253 408.424683,456.628693 403.974731,450.394836 
	C402.247986,447.975922 400.595917,447.166443 397.758850,448.793640 
	C388.926208,453.859467 379.665588,458.081055 369.965179,461.151642 
	C365.310150,462.625183 364.591553,465.404175 365.533508,469.509399 
	C367.058624,476.156189 368.411255,482.844269 370.042908,489.464142 
	C370.864471,492.797333 369.844452,494.399994 366.491364,495.087067 
	C352.964294,497.858887 339.446442,500.682526 325.967377,503.676819 
	C322.631348,504.417908 321.034607,503.688019 320.380096,500.199280 
	C319.000977,492.848175 317.217865,485.573059 315.828217,478.223724 
	C315.242981,475.128479 313.691376,474.029053 310.677643,474.227020 
	C299.868164,474.937042 289.050018,474.958221 278.240753,474.233551 
	C275.176971,474.028137 273.731903,475.217804 273.163574,478.287933 
	C271.832703,485.477722 270.120300,492.596313 268.746094,499.778870 
	C268.086914,503.224213 266.762085,504.537323 262.961243,503.672913 
	C249.661560,500.648315 236.301682,497.880127 222.930786,495.182434 
	C219.102875,494.410126 218.124542,492.771210 219.155273,488.940826 
	C220.881607,482.525391 221.979263,475.943481 223.479126,469.463470 
	C224.469406,465.185089 223.261139,462.681854 218.834946,461.176971 
	C209.370361,457.959045 200.138824,454.078217 191.499664,448.990601 
	C188.523529,447.237885 186.792130,447.966034 184.927185,450.592712 
	C180.494431,456.836090 175.692047,462.820190 171.349899,469.123230 
	C169.494232,471.817017 168.146088,471.656311 165.777512,469.901581 
	C154.803940,461.771973 143.796509,453.682617 132.630783,445.820923 
	C129.100159,443.335022 128.638626,441.420563 131.414368,437.902252 
	C136.560684,431.379272 141.205093,424.460297 146.223663,417.476379 
	C140.262894,410.945404 134.351593,404.478485 128.454437,397.998657 
	C127.333412,396.766876 126.244827,395.503723 125.181267,394.221863 
	C119.308403,387.143738 119.294334,387.107605 111.089813,391.718781 
	C106.008904,394.574463 100.925446,397.437286 95.977989,400.513763 
	C93.483665,402.064819 92.016006,402.057129 90.428825,399.253540 
	C83.455368,386.935883 76.375816,374.675934 69.142845,362.509125 
	C67.246315,359.318939 68.244164,357.871368 71.115700,356.292725 
	C77.680740,352.683533 84.070244,348.756470 90.601418,345.083649 
	C93.071999,343.694275 93.642403,342.184509 92.579414,339.424988 
	C88.691719,329.332550 84.866913,319.199829 82.653282,308.566833 
	C81.999947,305.428589 80.797157,304.301117 77.165649,304.920563 
	C69.803566,306.176392 62.286350,306.492737 54.870060,307.475433 
	C51.873791,307.872406 50.424999,306.926880 50.124058,304.040283 
	C48.641083,289.815552 47.180901,275.588470 45.691582,261.364410 
	C45.351715,258.118469 46.949825,256.955872 50.007088,256.718018 
	C57.470184,256.137482 64.908195,255.210419 72.375931,254.724747 
	C75.604446,254.514786 76.769386,253.224335 76.694420,250.095154 
	C76.438202,239.398209 77.948433,228.845551 79.607162,218.319778 
	C80.099396,215.196167 79.246696,213.288986 76.023865,212.333313 
	C69.321800,210.345947 62.720425,208.018112 56.014175,206.046097 
	C52.333908,204.963928 50.840763,203.560104 52.314442,199.303879 
	C56.777905,186.412659 60.845196,173.381607 64.893959,160.351318 
	C65.909035,157.084442 67.233475,156.207047 70.653374,157.392456 
	C78.947044,160.267212 87.390373,162.710175 95.930275,165.376114 
	C101.783447,154.030914 107.411697,143.078674 114.667091,133.082214 
	C116.544716,130.495224 114.890190,128.885483 113.001083,127.214478 
	C106.538055,121.497589 100.154510,115.690849 93.265953,109.491165 
	C99.569427,102.425011 105.515320,95.742752 111.480965,89.078178 
	C115.480865,84.609657 119.687019,80.310921 123.462502,75.661453 
	C126.047424,72.478142 127.925331,72.100624 130.985718,75.191399 
	C135.782547,80.035858 141.115021,84.344925 146.074539,89.035217 
	C148.978439,91.781487 151.453186,92.202179 154.633194,89.295303 
	C162.153473,82.420952 170.505417,76.600388 179.276001,71.455940 
	C182.496231,69.567093 182.756165,67.778000 181.261703,64.641487 
	C178.111511,58.029968 175.324112,51.246426 172.326797,44.560837 
	C171.030258,41.668865 171.194229,39.856819 174.631317,38.372272 
	C186.858582,33.091084 198.924881,27.438063 211.069992,21.965443 
	C216.525406,19.507210 217.099716,19.832104 219.492065,25.494076 
	C222.083893,31.628157 224.914536,37.663460 227.410370,43.835117 
	C228.741028,47.125511 230.564835,47.813766 233.988235,46.900032 
	C244.108170,44.198917 254.240952,41.433422 264.670013,40.162937 
	C267.840973,39.776646 268.890198,38.378033 268.833405,35.302570 
	C268.701172,28.140125 268.948181,20.969978 268.778168,13.809203 
	C268.685730,9.914165 270.212708,8.539446 274.075378,8.554095 
	C287.902069,8.606541 301.729950,8.447498 315.556610,8.296818 
	C318.985748,8.259447 320.260010,9.790551 320.199341,13.164718 
	C320.067444,20.493967 320.294556,27.830248 320.127960,35.158039 
	C320.052063,38.495525 321.334412,40.020309 324.612000,40.375870 
	C334.904968,41.492474 344.872803,44.246864 354.827454,46.907017 
	C358.663879,47.932201 360.333160,46.640461 361.695282,43.427692 
	C364.425323,36.988689 367.485382,30.685404 370.076691,24.193361 
	C371.567169,20.459188 373.514008,20.056580 376.951447,21.643011 
	C389.195679,27.293938 401.481110,32.864063 413.869110,38.189903 
	C417.612427,39.799213 417.975555,41.705013 416.388092,45.100262 
	C413.285553,51.735992 410.601074,58.567749 407.475586,65.191925 
	C406.107391,68.091583 406.725037,69.605843 409.399231,71.201973 
	C418.279633,76.502388 426.733490,82.457306 434.427399,89.377357 
	C437.688904,92.310852 440.089264,91.675880 442.949615,88.959862 
	C448.139984,84.031494 453.530670,79.314499 458.817780,74.487442 
	C460.342926,73.095001 461.736023,71.524620 463.781830,73.824905 
	C474.072479,85.395569 484.390259,96.942062 494.681274,108.512398 
	C494.875885,108.731209 494.858704,109.138405 495.011353,109.735657 
	C489.569946,115.852455 483.103668,121.099411 476.789368,126.459938 
	C473.410767,129.328217 473.076233,131.497055 475.673462,135.178650 
	C481.628113,143.619339 486.874481,152.544510 491.162903,161.960129 
	C492.524078,164.948792 494.073059,165.342896 496.973022,164.336380 
	C504.048431,161.880630 511.272034,159.850006 518.336060,157.364182 
	C521.328369,156.311234 522.890442,156.660187 523.911194,159.891525 
	C528.070984,173.060135 532.324280,186.200943 536.733032,199.288010 
	C537.962769,202.938370 537.259583,204.735092 533.382385,205.817108 
	C526.654724,207.694656 520.111206,210.228012 513.392883,212.144119 
	C509.643097,213.213577 508.901978,215.322449 509.473633,218.821793 
	C511.137390,229.006958 512.369629,239.254898 512.271545,249.594086 
	C512.239380,252.987823 513.580017,254.387436 516.870300,254.658005 
	C523.834106,255.230667 530.770325,256.375580 537.738464,256.579803 
	C542.608276,256.722504 543.752075,258.789001 543.271729,263.093018 
	C541.722595,276.975372 540.296814,290.871490 538.695190,305.154419 
M355.019958,436.520691 
	C379.482910,427.868317 401.732666,415.365631 420.926025,397.821594 
	C462.488403,359.830658 483.698029,312.474762 484.352386,256.270142 
	C484.637573,231.775085 480.138824,207.832352 470.304016,185.244476 
	C442.005524,120.250481 392.965149,81.014076 323.013458,69.146797 
	C287.251526,63.079796 252.216248,67.700546 218.940536,82.373474 
	C184.255737,97.667740 156.262451,121.186920 135.510330,153.084366 
	C107.965370,195.422897 98.714211,241.934738 107.850441,291.115143 
	C117.278137,341.864532 143.965469,382.618347 186.549911,412.433258 
	C218.914352,435.092773 255.102020,446.143188 294.406311,446.398682 
	C314.766266,446.531006 334.862091,443.382019 355.019958,436.520691 
z"/>
<path fill="#000000" opacity="1.000000" stroke="none" 
	d="
M303.627991,319.999878 
	C303.633667,310.666748 303.766663,301.830994 303.582062,293.001862 
	C303.504700,289.301178 304.935577,287.933594 308.530640,287.959167 
	C320.696198,288.045776 332.864532,288.105469 345.028076,287.923309 
	C349.721985,287.852997 349.999664,290.600433 349.994507,294.075104 
	C349.959259,317.735626 349.954559,341.396271 350.000488,365.056763 
	C350.004456,367.098663 349.308533,369.566132 351.974854,370.718994 
	C355.348236,372.177582 357.794250,370.283997 357.817566,366.013947 
	C357.887634,353.181763 357.880249,340.349091 357.878174,327.516602 
	C357.873383,298.017731 357.935333,268.518341 357.754791,239.020462 
	C357.726929,234.466797 359.106293,232.827942 363.725250,232.923553 
	C375.386536,233.164932 387.058014,233.121445 398.721527,232.940750 
	C403.031097,232.873993 404.442017,234.385910 404.427765,238.765427 
	C404.291870,280.597107 404.416565,322.429626 404.275360,364.261230 
	C404.259583,368.932312 405.016357,371.692749 410.456024,371.045685 
	C413.588959,370.673035 415.066803,372.435150 414.881836,375.571167 
	C414.862183,375.903778 414.856567,376.237183 414.843414,376.570190 
	C414.457214,386.332733 414.457214,386.327789 404.651794,386.327179 
	C330.320465,386.322540 255.989120,386.321381 181.657776,386.314606 
	C174.292221,386.313934 174.510971,386.300415 174.527908,378.920502 
	C174.621979,337.921967 174.607513,296.923126 174.617386,255.924408 
	C174.625809,220.925507 174.674881,185.926392 174.536499,150.928040 
	C174.520660,146.924103 175.849045,145.697815 179.717972,145.760651 
	C190.810028,145.940750 189.303574,145.254013 189.308258,154.994202 
	C189.341827,224.658859 189.309174,294.323578 189.406555,363.988098 
	C189.409744,366.274384 187.733002,370.502136 191.661957,370.411591 
	C195.408997,370.325226 193.731873,366.145203 193.750931,363.817627 
	C193.894333,346.319397 193.999146,328.816345 193.704254,311.321777 
	C193.617035,306.147247 195.392761,304.735291 200.327347,304.866516 
	C211.485657,305.163330 222.662430,305.141022 233.821640,304.855316 
	C238.703171,304.730316 240.534805,306.076935 240.445694,311.293518 
	C240.141113,329.121002 240.314484,346.956909 240.337494,364.789520 
	C240.341232,367.685150 239.506042,370.984039 244.408325,371.024506 
	C249.201385,371.064087 248.673676,367.954346 248.672913,364.933624 
	C248.664886,333.601318 248.646652,302.268982 248.662094,270.936676 
	C248.667526,259.880920 247.698410,260.868042 258.469727,260.818756 
	C268.302643,260.773743 278.135803,260.785614 287.968872,260.791992 
	C295.229645,260.796692 295.255920,260.810699 295.255280,267.909363 
	C295.252350,300.241821 295.213226,332.574310 295.263306,364.906677 
	C295.266815,367.174591 294.219604,370.183533 297.991516,370.896484 
	C301.800293,371.616394 303.590454,370.047852 303.608032,365.493652 
	C303.665985,350.495941 303.628113,335.497833 303.627991,319.999878 
M373.207123,324.500000 
	C373.206665,338.317291 373.278137,352.135254 373.156494,365.951477 
	C373.125031,369.522339 374.292175,371.316437 378.036591,370.973969 
	C379.192078,370.868256 380.365662,370.964478 381.530975,370.961456 
	C388.906433,370.942444 388.942291,370.941895 388.952454,363.482361 
	C389.000793,328.023956 389.033081,292.565521 389.059631,257.107117 
	C389.068085,245.822021 389.682312,247.557663 379.079102,247.153976 
	C374.506958,246.979904 373.057556,248.460083 373.098694,253.083633 
	C373.307770,276.554230 373.204132,300.027588 373.207123,324.500000 
M264.049561,309.500000 
	C264.038269,326.480804 263.937531,343.462219 264.047180,360.442230 
	C264.119995,371.716949 262.165894,370.812500 274.954224,370.894379 
	C278.570648,370.917511 279.956909,369.614532 279.945068,365.932068 
	C279.853058,337.298065 279.855499,308.663513 279.947510,280.029510 
	C279.958923,276.481354 278.651917,274.734497 275.123810,274.642944 
	C273.461884,274.599823 271.797272,274.554382 270.140839,274.422485 
	C265.686768,274.067993 263.882294,275.936310 264.000977,280.534058 
	C264.241516,289.850250 264.058746,299.177368 264.049561,309.500000 
M318.337219,312.607605 
	C318.333649,328.429962 318.210449,344.253540 318.365875,360.074310 
	C318.481689,371.864410 315.778931,370.933197 329.728363,370.998627 
	C333.359833,371.015656 334.725739,369.535706 334.706573,365.908386 
	C334.607117,347.088745 334.667847,328.268311 334.652893,309.448151 
	C334.651733,307.975769 334.977783,306.128357 333.418152,305.370911 
	C329.171265,303.308502 324.480133,303.746521 320.211578,304.669098 
	C316.786072,305.409515 318.860046,309.234406 318.337219,312.607605 
M209.235092,347.499969 
	C209.232468,351.995697 209.193649,356.491760 209.234375,360.987091 
	C209.333618,371.941681 207.786972,370.549744 219.094376,370.915375 
	C223.841812,371.068878 225.063202,369.279572 224.985321,364.830322 
	C224.787399,353.522827 224.973709,342.207672 225.070618,330.896179 
	C225.166870,319.660065 225.205368,319.773590 213.829330,320.181244 
	C210.339096,320.306305 209.134781,321.690125 209.190384,325.021027 
	C209.309875,332.178955 209.232803,339.340149 209.235092,347.499969 
z"/>
<path fill="#000000" opacity="1.000000" stroke="none" 
	d="
M411.691895,137.684906 
	C411.988129,151.743164 412.050781,165.402771 412.170624,179.061890 
	C412.196686,182.035950 410.819916,183.063049 407.911652,183.227615 
	C396.993958,183.845459 397.024658,183.903732 396.914276,173.106812 
	C396.882507,169.998978 397.378052,166.837402 396.468292,163.654510 
	C394.167725,164.060974 393.096649,165.894226 391.748749,167.239120 
	C367.922668,191.012268 344.067932,214.757721 320.419312,238.706604 
	C316.939819,242.230255 314.819275,242.640228 311.295959,238.834320 
	C304.396149,231.381104 296.916626,224.467896 289.878204,217.138016 
	C287.158081,214.305222 285.431519,214.420654 282.642120,217.230103 
	C257.402832,242.650940 232.007614,267.916931 206.670868,293.241058 
	C202.341858,297.567932 202.044037,297.580963 197.741180,292.827759 
	C192.039581,286.529449 192.032455,286.522308 198.138321,280.417297 
	C226.065994,252.493454 254.044647,224.620270 281.867371,196.592300 
	C285.213226,193.221756 287.330261,192.955688 290.644073,196.622864 
	C298.441956,205.252258 306.635071,213.524551 314.790283,222.069199 
	C338.684052,197.907867 361.514099,174.822159 384.847290,151.227661 
	C379.692871,151.227661 374.753479,151.106339 369.823639,151.270691 
	C366.586060,151.378632 365.485626,150.175659 365.477081,146.893707 
	C365.449158,136.167725 365.333557,136.146744 376.240204,136.106216 
	C385.906494,136.070282 395.573029,136.068542 405.239319,136.098892 
	C407.374847,136.105591 409.609100,135.795471 411.691895,137.684906 
z"/>
</svg>